<?xml version="1.0" encoding="utf-8"?>
<!-- Generator: Adobe Illustrator 16.0.0, SVG Export Plug-In . SVG Version: 6.00 Build 0)  -->
<!DOCTYPE svg PUBLIC "-//W3C//DTD SVG 1.1//EN" "http://www.w3.org/Graphics/SVG/1.1/DTD/svg11.dtd">
<svg version="1.1" id="Layer_2" xmlns="http://www.w3.org/2000/svg" xmlns:xlink="http://www.w3.org/1999/xlink" x="0px" y="0px"
	 width="170.247px" height="135.288px" viewBox="0 0 170.247 135.288" enable-background="new 0 0 170.247 135.288"
	 xml:space="preserve">
<path fill-rule="evenodd" clip-rule="evenodd" fill="#8460A7" d="M2.001,47.87c9.605-17.008,20.27-32.773,40.758-38.359
	c6.716-1.831,12.301-6.513,19.452-7.81c15.266-2.771,30.012-2.938,43.775,5.52c2.316,1.423,4.869,0.606,7.298,0.648
	c5.531,0.097,10.284,1.67,13.62,6.338c1.976,2.765,5.08,3.578,7.993,4.587c13.097,4.532,22.591,12.525,27.765,25.87
	c3.055,7.882,7.91,14.891,7.568,24.018c-0.502,13.432-11.273,25.763-24.568,27.261c-5.553,0.626-11.029,1.784-16.622,0.055
	c-1.92-0.594-3.741,0.077-5.331,1.765c-10.828,11.491-24.14,12.008-38.254,8.223c-2.794-0.75-4.781-0.751-6.786,1.756
	c-3.024,3.782-7.095,6.181-11.712,7.847c-7.906,2.854-12.934,9.33-18.317,15.297c-1.57,1.74-3.26,3.377-5.587,3.937
	c-8.791,2.113-13.774-3.111-11.401-11.964c1.057-3.939,1.94-7.994,3.596-11.686c1.881-4.196-0.345-5.398-3.562-6.197
	c-4.432-1.102-8.867-2.128-12.618-4.944c-0.388-4.209,0.857-6.251,5.497-4.501c1.775,0.669,3.795,0.911,5.543-0.444
	c6.586,0.68,13.323,6.742,19.91-0.454c-1.075-1.311-2.012-2.454-2.949-3.598c-1.706-7.154-1.05-8.182,4.887-7.651
	c5.071,3.617,7.288,8.465,6.017,14.632c-1.204,5.842-5.508,7.653-10.869,8.027c-1.046,0.073-1.692,0.946-1.927,2.018
	c-0.965,4.423-1.934,8.845-2.902,13.267c7.169-10.963,21.247-12.608,29.886-21.812c-2.557-2.248-4.572-4.859-2.328-7.466
	c1.948-2.262,5.167-1.563,7.798-0.254c2.194,1.094,4.264,2.438,6.452,3.544c8.584,4.34,17.308,5.736,26.035,0.53
	c3.485-2.079,7.688-4.201,2.994-9.25c-0.852-0.916-1.08-2.813-0.923-4.181c0.362-3.157-1.345-4.556-3.896-5.418
	c-6.676-2.257-11.773-6.941-14.289-13.014c-2.725-6.572-6.938-8.938-13.387-9.129c-1.268-0.037-2.627-0.396-3.762-0.968
	c-4.798-2.423-7.928,0.316-10.49,3.639c-1.533,1.987-2.813,4.575-3.105,7.024c-0.517,4.327-3.445,3.261-5.907,3.3
	c-3.536,0.056-2.085-2.756-2.179-4.396c-0.213-3.702,1.242-7.077,3.092-10.144c4.826-8,6.025-12.06,5.845-21.637
	c-0.01-0.499,0.095-1.024-0.024-1.494c-1.384-5.465-1.631-11.67-8.818-13.333c-5.079-1.176-6.603,0.445-6.294,5.502
	c0.37,6.039,0.837,12.146-2.482,17.849c-4.285,7.36-5.815,15.275-3.26,23.664c-0.707,0.012-1.414,0.023-2.121,0.035
	c-1.334,0-2.666,0-4,0c-0.705-0.014-1.408-0.028-2.113-0.042c-0.398-4.37-0.924-8.632-0.512-13.15
	c0.705-7.752,4.181-14.372,6.944-21.298c0.86-2.158,0.394-3.319-1.013-4.769c-1.26-1.298-2.592-2.119-4.389-1.653
	c-4.387,1.137-14.059,12.87-14.979,17.489c-1.32,6.632,2.375,12.312,3.012,18.535c0.209,2.045,0.615,4.556-2.674,4.872
	c-2.662,0.255-4.505-0.71-5.256-3.384c-1.123-3.997-2.233-7.997-3.438-12.318c-1.654,2.965-3.539,5.469-3.75,8.72
	c-0.555,0.424-1.438,0.752-1.596,1.293c-0.342,1.162,0.624,1.531,1.596,1.703c0.097,1.322,0.193,2.646,0.29,3.968
	c-4.649,2.28-6.383,0.468-6.139-4.301c0.126-2.464,0.186-4.969-2.094-6.71 M137.18,30.832c-0.284-0.724-0.785-0.962-1.519-0.679
	c0.269,0.46,0.536,0.919,0.806,1.378c1.724,1.801,3.316,3.756,5.203,5.366c2.67,2.277,3.686,5.38,1.714,7.853
	c-1.884,2.361-4.845,1.496-7.506-0.38c-6.742-4.753-10.63-11.51-13.706-18.802c-3.975-9.417-12.851-12.19-18.613-5.671
	c-2.441,2.763-1.103,5.426-0.614,8.336c0.368,2.192,1.235,5.21-2.769,5.699c-3.434,0.421-5.359-1.156-4.92-4.333
	c0.646-4.661-2.209-6.278-5.609-7.356c-3.25-1.03-6.394-2.435-9.99-2.542c-1.388-0.042-4.627,0.261-4.342-2.627
	c0.24-2.421,2.399-3.07,4.842-3.223c5.336-0.333,10.543,0.849,16.044,1.415c-3.106-6.443-19.202-8.554-30.885-4.47
	c5.187,7.717,5.125,7.897,5.864,18.245c0.23,3.22,0.904,6.521,2.033,9.538c2.169,5.8,7.211,9.035,12.853,8.971
	c3.604-0.041,2.069-5.248,3.075-8.053c0.055-0.152,0.018-0.337,0.066-0.493c0.64-2.064,2.322-2.056,4.035-2.067
	c2.072-0.014,1.632,1.507,1.897,2.771c0.938,4.466,1.726,8.995,3.114,13.326c1.816,5.666,5.919,9.773,10.268,13.703
	c4.012,3.624,8.624,3.51,13.495,3.248c2.429-0.131,4.894-0.404,7.376,0.531c4.82,1.818,9.426,1.372,13.912-1.553
	c2.34-1.523,5.826-2.519,7.389,0.612c1.471,2.946,0.574,6.006-3.203,7.631c-6.568,2.825-13.154,1.79-19.865,0.979
	c-2.303-0.278-5.557-2.306-7.031,1.005c-1.468,3.295,1.652,4.694,3.915,5.782c11.114,5.346,22.472,3.77,32.114-6.146
	c5.324-5.473,5.92-12.687,2.412-19.164c-10.186,4.537-20.178,5.716-29.74-1.22c-1.565-1.136-2.729-0.885-3.98-0.449
	c-6.727,2.337-12.659,0.38-17.984-3.573c-2.695-2-6.244-5.009-3.287-8.555c2.881-3.456,6.68-2.561,9.687,1.093
	c1.77,2.149,3.781,4.455,7.429,3.426c-2.597-3.963-5.076-7.59-7.377-11.326c-1.104-1.793-1.371-3.974,0.343-5.46
	c1.45-1.258,3.327-0.777,5.148-0.098c3.433,1.282,4.675,4.525,6.721,7.036c4.642,5.699,8.463,12.18,15.999,14.853
	c4.135,1.467,7.055-0.626,9.84-2.859c1.361-1.093,2.93-2.727,1.494-5.074C149.188,40.691,144.92,34.085,137.18,30.832z
	 M17.116,87.046c0.083-5.311-0.505-10.47-3.042-15.25c-2.074-0.46-1.956-2.691-3.133-3.876c-3.078-0.48-6.27-1.942-8.943,1.042
	c0.115,1.479-0.317,3.373,0.437,4.368c4.293,5.671,8.209,11.472,9.559,18.629C15.626,92.327,17.063,90.47,17.116,87.046z
	 M19.067,100.029c-0.388-4.209,0.857-6.251,5.497-4.501c1.775,0.669,3.795,0.911,5.543-0.444c-1.709-0.942-3.551-1.707-5.107-2.856
	c-6.507-4.806-7.318-8.716-3.787-17.258c-1.677-1.278-2.147-3.059-2.103-5.053c-0.348-0.37-0.696-0.74-1.044-1.111
	c-2.009,0.091-3.009,1.527-3.99,2.99c2.536,4.78,3.124,9.939,3.042,15.25c-0.053,3.424-1.49,5.281-5.122,4.913
	C13.255,95.609,15.419,98.47,19.067,100.029z M9.231,63.883c-4.649,2.28-6.383,0.468-6.139-4.301
	c0.126-2.464,0.186-4.969-2.094-6.71c-2.169,5.519-0.324,10.788,1,16.09c2.673-2.984,5.866-1.522,8.943-1.042
	C10.372,66.574,9.801,65.229,9.231,63.883z M51.954,83.381c3.385,0.79,6.771,1.579,10.155,2.368c0-1.277,0-2.555-0.001-3.832
	c-1.667,0-3.333,0-5,0c-2.435,0.326-3.114-1.314-2.618-3.045c0.405-1.412,1.736-0.968,2.618,0.045
	c1.817,1.288,3.382,0.342,4.953-0.561c-2.651-2.979-6.567-3.01-9.955-4.272c0.708,3.742-0.965,5.876-4.535,6.721
	c-2.483-0.241-4.973-0.481-7.461-0.721c0.697,2.65,2.939,5.312-0.053,7.938c2.337,1.003,4.674,2.007,7.01,3.01
	C45.361,83.878,46.018,82.851,51.954,83.381z M46.019,78.565c-1.762-4.871-1.287-7.745,4.923-5.646
	c-2.571-3.013-5.142-6.024-7.712-9.037c-0.707,0.012-1.414,0.023-2.121,0.035c-0.627,3.009,1.599,6.651-2,9
	c-0.014,0.704-0.027,1.409-0.041,2.113c2.334,1.667,4.668,3.334,7.001,5.002C46.059,79.541,46.177,79.003,46.019,78.565z
	 M37.108,63.917c-0.209,2.289-1.769,3.637-3.668,2.775c-3.549-1.608-6.332,0.064-9.332,1.225c0.334,1,0.666,2,1,3
	c3.221-1.46,6.674-0.599,10-1c3.391-1.743,3.963,0.272,4,3c3.599-2.349,1.373-5.991,2-9C39.774,63.917,38.442,63.917,37.108,63.917z
	 M34.995,63.875c-1.787,0.014-3.579-0.062-5.357,0.06c-4.4,0.3-8.961,0.296-11.573,4.871c0.348,0.371,0.696,0.741,1.044,1.111
	c1.569-0.911,2.908-2.396,5-2c3-1.16,5.783-2.833,9.332-1.225c1.899,0.861,3.459-0.486,3.668-2.775
	C36.403,63.903,35.7,63.889,34.995,63.875z M7.346,58.212c-0.342,1.162,0.624,1.531,1.596,1.703c0-0.999,0-1.997,0-2.996
	C8.387,57.343,7.504,57.671,7.346,58.212z M21.212,74.97c1.004-0.233,2.283,0.391,2.938-0.938c0.32-0.705,0.641-1.409,0.959-2.114
	c0-0.333,0-0.667,0-1c-0.334-1-0.666-2-1-3c-2.092-0.396-3.431,1.089-5,2C19.065,71.911,19.535,73.691,21.212,74.97z M66.108,85.749
	c5.266-0.065,10.571,0.98,15.782-0.674c1.5-0.477,2.281,0.544,3.219,1.651c4.246,5.021,9.633,7.565,16.344,7.233
	c2.459-0.121,3.68-0.922,3.684-3.521c0.004-2.571-1.15-3.787-3.639-3.495c-4.369,0.513-7.162-2.076-10.408-4.683
	c2.115-1.411,3.982-2.415,4.756-4.633c0.695-1.993,2.282-3.852-0.232-5.688c-2.175-1.588-4.214-1.528-6.27,0.229
	c-7.077,6.047-15.32,7.367-24.235,5.915C65.441,80.64,65.775,83.194,66.108,85.749z M47.571,80.805
	c3.57-0.845,5.243-2.979,4.535-6.721c-0.388-0.389-0.776-0.776-1.165-1.165c-6.21-2.099-6.685,0.775-4.923,5.646
	c0.158,0.438,0.04,0.976,0.05,1.467C46.571,80.289,47.074,80.546,47.571,80.805z M62.092,78.354
	c0.006,1.188,0.012,2.375,0.017,3.562c0.001,1.277,0.001,2.555,0.001,3.832c1.333,0,2.666,0,3.999,0
	c-0.333-2.555-0.667-5.109-1-7.664C64.104,78.175,63.098,78.265,62.092,78.354z M62.062,78.356
	c-1.571,0.902-3.136,1.849-4.953,0.561c0,1,0,2,0,3c1.667,0,3.333,0,5,0c-0.005-1.188-0.011-2.375-0.017-3.562
	C62.092,78.354,62.062,78.356,62.062,78.356z M32.663,79.917c-2.156-0.073-3.553,0.67-3.537,3.066
	c0.014,1.916-0.479,3.617,2.648,4.171c2.776,0.492,5.525,0.585,8.283,0.868c2.992-2.627,0.75-5.288,0.053-7.938
	C37.628,80.03,35.145,80.001,32.663,79.917z M35.067,73.031c1.333,0.667,2.666,1.333,4,1.999c0.014-0.704,0.027-1.409,0.041-2.113
	c-0.037-2.728-0.609-4.743-4-3C35.095,70.955,35.081,71.993,35.067,73.031z M25.108,70.917c0,0.333,0,0.667,0,1
	c0.705,0.014,1.41,0.028,2.113,0.043c2.688-0.164,5.35-0.155,7.846,1.071c0.014-1.038,0.027-2.076,0.041-3.114
	C31.782,70.318,28.329,69.457,25.108,70.917z M27.222,71.96c-0.703-0.015-1.408-0.029-2.113-0.043 M54.49,78.872
	c-0.496,1.73,0.184,3.371,2.618,3.045c0-1,0-2,0-3C56.227,77.904,54.896,77.46,54.49,78.872z"/>
</svg>
